<svg xmlns="http://www.w3.org/2000/svg" viewBox="0 0 100 100" width="100" height="100">
  <defs>
    <linearGradient id="brainGradient" x1="0%" y1="0%" x2="100%" y2="100%">
      <stop offset="0%" style="stop-color:#3b82f6;stop-opacity:1" />
      <stop offset="100%" style="stop-color:#8b5cf6;stop-opacity:1" />
    </linearGradient>
    <filter id="glow">
      <feGaussianBlur stdDeviation="3" result="coloredBlur"/>
      <feMerge> 
        <feMergeNode in="coloredBlur"/>
        <feMergeNode in="SourceGraphic"/>
      </feMerge>
    </filter>
  </defs>
  
  <!-- Brain outline -->
  <path d="M50 15 C30 15, 20 25, 20 40 C20 55, 30 65, 50 65 C70 65, 80 55, 80 40 C80 25, 70 15, 50 15 Z" 
        fill="none" stroke="url(#brainGradient)" stroke-width="2" filter="url(#glow)"/>
  
  <!-- Brain folds -->
  <path d="M25 35 Q35 30, 45 35 Q55 40, 65 35 Q75 30, 75 35" 
        fill="none" stroke="url(#brainGradient)" stroke-width="1.5" opacity="0.8"/>
  <path d="M25 45 Q35 40, 45 45 Q55 50, 65 45 Q75 40, 75 45" 
        fill="none" stroke="url(#brainGradient)" stroke-width="1.5" opacity="0.8"/>
  <path d="M25 55 Q35 50, 45 55 Q55 60, 65 55 Q75 50, 75 55" 
        fill="none" stroke="url(#brainGradient)" stroke-width="1.5" opacity="0.8"/>
  
  <!-- Neural connections -->
  <circle cx="35" cy="30" r="2" fill="#60a5fa"/>
  <circle cx="65" cy="30" r="2" fill="#60a5fa"/>
  <circle cx="35" cy="50" r="2" fill="#8b5cf6"/>
  <circle cx="65" cy="50" r="2" fill="#8b5cf6"/>
  <circle cx="50" cy="40" r="2" fill="#06b6d4"/>
  
  <!-- Connection lines -->
  <line x1="35" y1="30" x2="50" y2="40" stroke="#60a5fa" stroke-width="1" opacity="0.6"/>
  <line x1="65" y1="30" x2="50" y2="40" stroke="#60a5fa" stroke-width="1" opacity="0.6"/>
  <line x1="35" y1="50" x2="50" y2="40" stroke="#8b5cf6" stroke-width="1" opacity="0.6"/>
  <line x1="65" y1="50" x2="50" y2="40" stroke="#8b5cf6" stroke-width="1" opacity="0.6"/>
</svg>
